# xmcd
#
# Track frame offsets:
#	150
#	14302
#	29240
#	41380
#	54289
#	66610
#	77685
#	95832
#	109772
#	125229
#	141667
#	155627
#	170387
#	188077
#	198042
#	208012
#	216887
#	231742
#	249652
#	263867
#	280457
#	294462
#	305567
#	330302
#	340497
#
# Disc length: 4689 seconds
#
# Revision: 1
# Processed by: cddbd v1.5.2PL0 Copyright (c) Steve Scherf et al.
# Submitted via: audiograbber 1.80.04
#
DISCID=91124f19
DTITLE=Dave Maclean and Montana Country - 25 Sucessos
DYEAR=1900
DGENRE=
TTITLE0=We Said Goodbye
TTITLE1=Crying
TTITLE2=Tears
TTITLE3=A Hard Day's Night
TTITLE4=Something
TTITLE5=Here Comes The Sun
TTITLE6=Blowin' In The Wind
TTITLE7=Jambalaya
TTITLE8=Oh! Lonesome Me
TTITLE9=Achy Breaky Heart
TTITLE10=As Time Goes By
TTITLE11=Stardust
TTITLE12=Georgia On My Mind
TTITLE13=Help
TTITLE14=Yesterday
TTITLE15=Please, Please Me
TTITLE16=Lay Down Sally
TTITLE17=Any Girl Of Mine
TTITLE18=Stella By Starlight
TTITLE19=Me And You
TTITLE20=My Special Angel
TTITLE21=Callin' Baton Rouge
TTITLE22=Sultans Of Swing
TTITLE23=Eight Days a Week
TTITLE24=Love Me Do
EXTD=
EXTT0=
EXTT1=
EXTT2=
EXTT3=
EXTT4=
EXTT5=
EXTT6=
EXTT7=
EXTT8=
EXTT9=
EXTT10=
EXTT11=
EXTT12=
EXTT13=
EXTT14=
EXTT15=
EXTT16=
EXTT17=
EXTT18=
EXTT19=
EXTT20=
EXTT21=
EXTT22=
EXTT23=
EXTT24=
PLAYORDER=
